# xmcd
#
# Track frame offsets: 
#        150
#        10784
#        24525
#        38124
#        49803
#        63152
#        72166
#        86583
#        101422
#        112066
#        124057
#        134606
#        146450
#        157689
#        169471
#        180277
#        191829
#        203818
#        214789
#        226321
#        238822
#        251986
#        262733
#        275514
#        286088
#        297442
#        309284
#
# Disc length: 4284 seconds
#
# Revision: 0
# Processed by: cddbd v1.5.1PL0 Copyright (c) Steve Scherf et al.
# Submitted via: ExactAudioCopy v0.95a4
#
DISCID=8610ba1b
DTITLE=George Morgan - Candy Kisses - Disc 3
DYEAR=1900
DGENRE=Country
TTITLE0=Ain't Love Grand
TTITLE1=Lover's Quarrel
TTITLE2=Honky Tonk Street
TTITLE3=Most Of All
TTITLE4=Every Prayer Is A Flower (In The Garden Of The Lord)
TTITLE5=How Many Times
TTITLE6=I Passed By Your Window
TTITLE7=The Lonesome Waltz
TTITLE8=I'll Furnish The Shoulder You Cry On
TTITLE9=Half-Hearted
TTITLE10=Look What Followed Me Home Tonight (Mama Can I Keep It)
TTITLE11=No One Knows It Better Than Me
TTITLE12=Love, Love, Love
TTITLE13=The First Time I Told You A Lie
TTITLE14=It's Been Nice
TTITLE15=Walking Shoes
TTITLE16=I Think I'm Going To Cry
TTITLE17=Sweetheart
TTITLE18=A Cheap Affair (& Shirley Dale)
TTITLE19=So Lonesome
TTITLE20=I'd Like To Know
TTITLE21=A Shot In The Dark
TTITLE22=The Best Mistake
TTITLE23=Whither Thou Goest
TTITLE24=Oceans Of Tears (I've Shed For You)
TTITLE25=Oh, Gentle Shepherd
TTITLE26=You Don't Have To Walk Alone
EXTD=
EXTT0=
EXTT1=
EXTT2=
EXTT3=
EXTT4=
EXTT5=
EXTT6=
EXTT7=
EXTT8=
EXTT9=
EXTT10=
EXTT11=
EXTT12=
EXTT13=
EXTT14=
EXTT15=
EXTT16=
EXTT17=
EXTT18=
EXTT19=
EXTT20=
EXTT21=
EXTT22=
EXTT23=
EXTT24=
EXTT25=
EXTT26=
PLAYORDER=
